<?xml version="1.0" encoding="utf-8"?>
<!-- Generator: $$$/GeneralStr/196=Adobe Illustrator 27.6.0, SVG Export Plug-In . SVG Version: 6.00 Build 0)  -->
<svg version="1.1" id="Laag_3" xmlns="http://www.w3.org/2000/svg" xmlns:xlink="http://www.w3.org/1999/xlink" x="0px" y="0px"
	 viewBox="0 0 290.2 199.8" style="enable-background:new 0 0 290.2 199.8;" xml:space="preserve">
<style type="text/css">
	.st0{fill:#2D2C2C;}
</style>
<path class="st0" d="M-402,141c11.1-25.3,22.1-50.7,33.2-76c-6.2-19.3-12.5-38.6-18.7-57.9c-20.2,0-40.3,0.1-60.5,0.1
	C-432.6,51.8-417.3,96.4-402,141L-402,141z"/>
<path class="st0" d="M-354.1,206.6c-20.2,0.1-40.3,0.1-60.5,0.2c29.1-66.4,58.3-132.8,87.4-199.3h48.6c11.3,25.2,22.7,50.5,34,75.7
	c9-25.4,18-50.8,26.9-76.2h59.9c-23.1,66.6-46.1,133.1-69.2,199.7h-24.8c-17.1-38.8-34.3-77.5-51.4-116.3
	c-3.4,7.6-6.8,15.1-10.1,22.6h4.7c7.3,18.2,14.6,36.5,21.9,54.7h-50.6C-342.9,180.7-348.5,193.7-354.1,206.6L-354.1,206.6z"/>
</svg>
