<?xml version="1.0" encoding="UTF-8"?>
<svg id="Laag_3" data-name="Laag 3" xmlns="http://www.w3.org/2000/svg" viewBox="0 0 290.21 199.79">
  <defs>
    <style>
      .cls-1 {
        fill: #424242;
      }

      .cls-2 {
        fill: #424242;
      }
    </style>
  </defs>
  <path class="cls-2" d="m46.04,134c11.06-25.33,22.13-50.67,33.19-76-6.24-19.29-12.48-38.58-18.72-57.87-20.17.03-40.34.06-60.51.09,15.35,44.6,30.7,89.19,46.04,133.79Z"/>
  <path class="cls-1" d="m93.87,199.62c-20.17.06-40.34.11-60.51.17C62.51,133.36,91.66,66.94,120.81.51h48.58c11.34,25.23,22.68,50.47,34.02,75.7,8.98-25.4,17.96-50.81,26.94-76.21h59.87c-23.06,66.57-46.13,133.13-69.19,199.7h-24.77c-17.13-38.75-34.27-77.5-51.4-116.26-3.38,7.55-6.75,15.09-10.13,22.64h4.69c7.31,18.23,14.62,36.47,21.92,54.7h-50.62c-5.62,12.94-11.23,25.89-16.85,38.83Z"/>
</svg>