<?xml version="1.0" encoding="UTF-8"?>
<svg id="Laag_1" data-name="Laag 1" xmlns="http://www.w3.org/2000/svg" viewBox="0 0 844.86 331.39">
  <defs>
    <style>
      .cls-1 {
        fill: #fff;
      }
    </style>
  </defs>
  <path class="cls-1" d="m842.44,239.35c3.22,0,3.22-5,0-5s-3.22,5,0,5h0Z"/>
  <path class="cls-1" d="m108.65,310.08c48.61-33.12,95.32-69.02,139.82-107.49,44.61-38.56,87-79.7,126.87-123.14,22.37-24.37,43.94-49.47,64.68-75.24,2.03-2.52-1.02-5.57-3.54-3.54-19.47,15.69-40.02,32.48-50.59,55.78-8.36,18.43-8.41,41.04,2.44,58.55,5.02,8.11,12.41,14.56,21.46,17.74,12.75,4.48,26.45,1.73,38.55-3.38,13.3-5.61,25.33-13.85,37.51-21.49,13.48-8.45,26.95-16.91,40.43-25.36,30.23-18.96,60.47-37.93,90.7-56.89,2.72-1.71.3-5.89-2.52-4.32-39.23,21.88-77.65,45.21-115.14,69.95s-74.22,51.01-109.85,78.55c-16.72,12.92-34.06,25.67-48.79,40.91-13.8,14.28-24.99,31.55-27.94,51.51-2.75,18.58,2.21,37.43,16.17,50.46,12.68,11.83,30.18,17.87,47.33,18.63,22.33.99,44.09-6.03,64.67-13.95,16.26-6.25,32.12-13.63,46.76-23.14,26.53-17.23,51.64-43.9,48.58-77.89-3.4-37.73-38.19-62.62-72.23-71.45-21-5.45-42.84-6.45-64.41-7.22-24.2-.87-48.39-1.7-72.59-2.55-48.18-1.69-96.36-3.39-144.54-5.08-48.18-1.69-96.36-3.39-144.54-5.08-11.84-.42-23.68-.83-35.52-1.25-3.22-.11-3.21,4.89,0,5,46.55,1.64,93.1,3.27,139.64,4.91,46.55,1.64,93.1,3.27,139.64,4.91,23.27.82,46.55,1.64,69.82,2.46,22.5.79,45.05,1.22,67.53,2.57,37.62,2.27,79.47,10.75,101.79,44.42,9.19,13.87,12.96,30.69,9.2,47.03-3.49,15.14-12.77,28.07-23.9,38.61-12.13,11.48-26.49,20.46-41.36,27.93-17.13,8.61-35.46,15.77-54.01,20.6-19.06,4.96-39.23,6.41-57.97-.62-16.6-6.23-30.39-19.05-34.5-36.69-4.46-19.14,2.17-39.3,13.05-55.06,11.43-16.55,27.37-29.38,42.98-41.78,33.97-26.97,68.92-52.7,104.76-77.13s72.59-47.61,110.11-69.4c9.22-5.35,18.48-10.62,27.79-15.82l-2.52-4.32c-25.57,16.04-51.14,32.08-76.7,48.12-24.89,15.61-49.49,31.84-74.78,46.79-11.44,6.76-24.15,13.32-37.71,13.79-10.76.38-20.88-3.59-28.15-11.56-12.64-13.87-15.17-35.84-9.37-53.2,8.7-26.05,31.67-44.42,52.28-61.03l-3.54-3.54c-36.76,45.65-76.12,89.2-117.86,130.35-41.74,41.14-85.84,79.9-132.01,115.99-26.18,20.46-53.04,40.05-80.5,58.76-2.64,1.8-.15,6.14,2.52,4.32h0Z"/>
</svg>