<?xml version="1.0" encoding="UTF-8"?>
<svg id="Laag_1" data-name="Laag 1" xmlns="http://www.w3.org/2000/svg" viewBox="0 0 739.16 263.86">
  <defs>
    <style>
      .cls-1 {
        fill: #fff;
      }
    </style>
  </defs>
  <path class="cls-1" d="m736.74,263.86c3.22,0,3.22-5,0-5s-3.22,5,0,5h0Z"/>
  <path class="cls-1" d="m71.68,202.49c31.55-21.5,61.87-44.8,90.76-69.77,28.9-24.98,56.36-51.63,82.19-79.77,14.49-15.79,28.46-32.05,41.9-48.74,2.03-2.52-1.02-5.57-3.54-3.54-12.67,10.21-26.03,21.15-32.91,36.31-5.55,12.22-5.62,27.19,1.58,38.82,3.38,5.46,8.34,9.76,14.43,11.89,8.4,2.95,17.46,1.17,25.44-2.19,8.69-3.66,16.55-9.02,24.51-14.01,8.73-5.48,17.46-10.95,26.19-16.43,19.59-12.29,39.17-24.57,58.76-36.86,2.72-1.71.3-5.89-2.52-4.32-25.41,14.18-50.3,29.29-74.59,45.32-24.38,16.09-48.14,33.09-71.25,50.96-10.86,8.39-22.13,16.67-31.69,26.57-9.03,9.35-16.39,20.69-18.33,33.75-1.83,12.34,1.41,24.87,10.7,33.54,8.39,7.83,19.94,11.82,31.28,12.33,14.54.64,28.72-3.91,42.13-9.07,10.61-4.08,20.96-8.88,30.5-15.08,17.43-11.32,33.92-28.88,31.91-51.22-2.24-24.85-24.97-41.3-47.43-47.13-13.68-3.55-27.91-4.21-41.96-4.71-15.67-.56-31.35-1.1-47.02-1.65-31.21-1.1-62.42-2.2-93.64-3.29-31.21-1.1-62.42-2.2-93.64-3.29-7.67-.27-15.34-.54-23.01-.81-3.22-.11-3.21,4.89,0,5,30.15,1.06,60.31,2.12,90.46,3.18s60.31,2.12,90.46,3.18c15.08.53,30.15,1.06,45.23,1.59s29.18.79,43.74,1.66c24.03,1.45,50.91,6.81,65.18,28.34,5.82,8.79,8.26,19.43,5.87,29.79-2.23,9.67-8.15,17.89-15.26,24.62-7.8,7.39-17.05,13.15-26.62,17.96-11.03,5.54-22.83,10.15-34.78,13.25s-25.09,4.1-37.08-.4c-10.47-3.93-19.14-12.04-21.73-23.15-2.84-12.17,1.45-24.98,8.37-34.99,7.35-10.65,17.66-18.91,27.7-26.89,21.95-17.43,44.53-34.04,67.68-49.83,23.23-15.84,47.02-30.84,71.33-44.96,5.97-3.47,11.97-6.88,18-10.25l-2.52-4.32c-16.56,10.39-33.13,20.78-49.69,31.17s-32.06,20.62-48.44,30.31c-7.27,4.3-15.36,8.51-23.99,8.81-6.75.24-13.05-2.23-17.61-7.23-7.98-8.76-9.5-22.67-5.85-33.61,5.58-16.71,20.43-28.5,33.64-39.15l-3.54-3.54c-23.81,29.58-49.31,57.78-76.35,84.44-27.04,26.65-55.61,51.76-85.52,75.14-16.9,13.21-34.24,25.85-51.97,37.92-2.64,1.8-.15,6.14,2.52,4.32h0Z"/>
</svg>