<?xml version="1.0" encoding="UTF-8"?>
<svg id="Laag_1" data-name="Laag 1" xmlns="http://www.w3.org/2000/svg" viewBox="0 0 614.57 217.91">
  <defs>
    <style>
      .cls-1 {
        fill: #fff;
      }

      .cls-2 {
        fill: #1d1d1b;
      }
    </style>
  </defs>
  <path class="cls-1" d="m2.41,217.91c3.22,0,3.22-5,0-5s-3.22,5,0,5h0Z"/>
  <path class="cls-2" d="m427.55,116.26c17.85-12.16,35-25.34,51.35-39.46,16.29-14.08,31.77-29.09,46.34-44.95,8.22-8.95,16.15-18.18,23.78-27.65,2.03-2.52-1.02-5.57-3.54-3.54-7.25,5.84-14.91,12.14-18.8,20.84-3.23,7.23-3.31,16.02.96,22.89,2.05,3.31,5.04,5.86,8.72,7.18,4.84,1.73,10.17.79,14.79-1.13,5.04-2.09,9.59-5.15,14.19-8.04,4.92-3.08,9.83-6.17,14.75-9.25,11.1-6.96,22.19-13.92,33.29-20.88,2.72-1.71.3-5.89-2.52-4.32-14.39,8.03-28.49,16.59-42.24,25.67-13.8,9.11-27.25,18.76-40.34,28.87-11.53,8.91-26.08,18.81-28.43,34.38-1.1,7.26.67,14.65,6.07,19.85,4.86,4.69,11.6,7.09,18.26,7.48,8.22.48,16.31-2.03,23.9-4.92,6.16-2.35,12.19-5.08,17.75-8.65,10.13-6.5,19.75-16.6,18.88-29.53-.98-14.55-13.95-24.47-27.09-28.01-7.78-2.1-15.91-2.52-23.92-2.81-8.84-.32-17.68-.62-26.53-.93-17.71-.62-35.42-1.25-53.14-1.87s-35.42-1.25-53.14-1.87c-4.32-.15-8.65-.3-12.97-.46-3.22-.11-3.21,4.89,0,5,16.96.6,33.93,1.19,50.89,1.79s34.09,1.2,51.14,1.8c8.48.3,16.96.6,25.45.9s16.43.45,24.63.93c13.28.78,28.38,3.66,36.18,15.68,3.1,4.77,4.34,10.53,3,16.03s-4.56,9.68-8.47,13.33c-4.35,4.07-9.49,7.23-14.8,9.88-6.14,3.07-12.71,5.61-19.36,7.32s-13.88,2.2-20.47-.4c-5.59-2.2-10.02-6.64-11.27-12.62-1.37-6.55,1.13-13.36,4.86-18.68,4.09-5.84,9.83-10.39,15.37-14.78,12.38-9.83,25.12-19.19,38.18-28.09s26.41-17.31,40.06-25.23c3.35-1.94,6.71-3.86,10.09-5.74l-2.52-4.32c-9.27,5.81-18.54,11.63-27.81,17.44s-18.08,11.6-27.3,17.09c-3.91,2.33-8.28,4.71-12.92,4.97-3.61.2-6.85-.97-9.26-3.48-4.39-4.59-5.25-12.16-3.28-18.11,3.05-9.25,11.43-15.79,18.72-21.67l-3.54-3.54c-13.46,16.72-27.87,32.66-43.16,47.72-15.23,15.01-31.32,29.15-48.17,42.32-9.47,7.4-19.19,14.48-29.12,21.24-2.64,1.8-.15,6.14,2.52,4.32h0Z"/>
</svg>